<svg width="448" height="448" xmlns="http://www.w3.org/2000/svg" fill="#222326">
 <g>
  <title>Layer 1</title>
  <path fill="none" d="m0,230.126l0,-0.793c0.016,55.974 0.294,63.853 1.344,87.03c3.733,81.349 48.87,126.56 130.293,130.293c23.913,1.083 31.528,1.344 92.363,1.344l-224,0l0,-217.874zm229.242,-189.75c55.006,0.014 62.368,0.256 85.291,1.307c60.704,2.762 89.059,31.565 91.822,91.821c1.05,22.905 1.275,30.266 1.287,85.272l0,10.487c-0.014,55.022 -0.255,62.365 -1.287,85.27c-2.782,60.2 -31.062,89.059 -91.822,91.822c-23.159,1.06 -30.399,1.297 -87.005,1.306l-7.054,0c-56.572,-0.009 -63.848,-0.245 -86.989,-1.306c-60.853,-2.782 -89.058,-31.715 -91.821,-91.84c-1.05,-22.905 -1.292,-30.249 -1.306,-85.271l0,-8.77c0.01,-56.572 0.263,-63.83 1.306,-86.989c2.781,-60.237 31.061,-89.058 91.821,-91.821c22.923,-1.032 30.268,-1.274 85.273,-1.287l10.484,0l0,-0.001zm-5.242,68.6c-63.523,0 -115.024,51.501 -115.024,115.024s51.501,115.043 115.024,115.043s115.024,-51.503 115.024,-115.043c0,-63.523 -51.501,-115.024 -115.024,-115.024zm0,40.357c41.235,0 74.667,33.432 74.667,74.667c0,41.253 -33.432,74.667 -74.667,74.667s-74.667,-33.414 -74.667,-74.667c0,-41.235 33.432,-74.667 74.667,-74.667zm119.579,-71.773c-14.859,0 -26.899,12.04 -26.899,26.88s12.04,26.88 26.899,26.88c14.84,0 26.861,-12.04 26.861,-26.88s-12.021,-26.88 -26.861,-26.88zm104.421,146.44l0,224l-224,0c60.835,0 68.47,-0.261 92.363,-1.344c81.274,-3.733 126.597,-48.87 130.274,-130.293c1.103,-23.894 1.363,-31.528 1.363,-92.363zm-1.344,-92.344c-3.659,-81.275 -48.85,-126.56 -130.275,-130.293c-23.194,-1.069 -31.074,-1.347 -87.048,-1.363l218.667,0l0,224c0,-60.835 -0.261,-68.45 -1.344,-92.344zm-446.656,-131.656l218.667,0c-55.973,0.016 -63.834,0.294 -87.011,1.344c-81.35,3.733 -126.56,48.87 -130.293,130.293c-1.064,23.085 -1.344,30.983 -1.363,86.236l0,-217.873z" id="svg_1"/>
 </g>

</svg>