<svg width="967.9371" height="334.974" xmlns="http://www.w3.org/2000/svg">

 <g>
  <title>Layer 1</title>
  <path stroke="#ffffff" id="svg_1" fill="#ffffff" d="m280.707,153.987c-35.992,-21.375 -95.36,-23.34 -129.719,-12.912c-5.519,1.674 -11.353,-1.44 -13.024,-6.958c-1.672,-5.521 1.439,-11.352 6.96,-13.029c39.443,-11.972 105.008,-9.66 146.443,14.936c4.964,2.947 6.59,9.356 3.649,14.31c-2.944,4.963 -9.359,6.6 -14.31,3.653m-1.178,31.658c-2.525,4.098 -7.883,5.383 -11.975,2.867c-30.005,-18.444 -75.762,-23.788 -111.262,-13.012c-4.603,1.39 -9.466,-1.204 -10.864,-5.8a8.717,8.717 0 0 1 5.805,-10.856c40.553,-12.307 90.968,-6.347 125.432,14.833c4.092,2.52 5.38,7.88 2.864,11.968m-13.663,30.404a6.954,6.954 0 0 1 -9.569,2.316c-26.22,-16.025 -59.223,-19.644 -98.09,-10.766a6.955,6.955 0 0 1 -8.331,-5.232a6.95,6.95 0 0 1 5.233,-8.334c42.533,-9.722 79.017,-5.538 108.448,12.446a6.96,6.96 0 0 1 2.31,9.57m-51.21,-161.049c-61.664,0 -111.656,49.99 -111.656,111.656c0,61.672 49.992,111.66 111.657,111.66c61.668,0 111.659,-49.988 111.659,-111.66c0,-61.665 -49.99,-111.656 -111.659,-111.656m192.125,103.08c-19.279,-4.598 -22.71,-7.825 -22.71,-14.605c0,-6.405 6.03,-10.714 14.998,-10.714c8.693,0 17.312,3.273 26.35,10.012c0.274,0.204 0.616,0.285 0.954,0.232a1.24,1.24 0 0 0 0.833,-0.515l9.413,-13.27c0.387,-0.546 0.282,-1.3 -0.24,-1.717c-10.756,-8.63 -22.868,-12.826 -37.025,-12.826c-20.816,0 -35.356,12.49 -35.356,30.365c0,19.167 12.543,25.952 34.217,31.192c18.448,4.25 21.562,7.808 21.562,14.173c0,7.052 -6.295,11.436 -16.427,11.436c-11.253,0 -20.432,-3.79 -30.7,-12.682a1.329,1.329 0 0 0 -0.927,-0.302c-0.34,0.028 -0.65,0.186 -0.866,0.446l-10.555,12.561c-0.443,0.521 -0.387,1.3 0.125,1.75c11.947,10.666 26.64,16.3 42.495,16.3c22.432,0 36.925,-12.257 36.925,-31.226c0,-16.032 -9.577,-24.899 -33.066,-30.61m100.098,21.486c0,13.537 -8.34,22.984 -20.28,22.984c-11.803,0 -20.707,-9.876 -20.707,-22.984c0,-13.107 8.904,-22.984 20.708,-22.984c11.748,0 20.279,9.664 20.279,22.984m-16.283,-40.5c-9.723,0 -17.697,3.83 -24.273,11.676l0,-8.832c0,-0.697 -0.566,-1.265 -1.263,-1.265l-17.261,0c-0.698,0 -1.262,0.568 -1.262,1.265l0,98.136c0,0.697 0.564,1.265 1.262,1.265l17.26,0c0.698,0 1.264,-0.568 1.264,-1.265l0,-30.977c6.577,7.382 14.553,10.988 24.273,10.988c18.065,0 36.353,-13.907 36.353,-40.491c0,-26.59 -18.288,-40.5 -36.353,-40.5m83.231,63.625c-12.375,0 -21.704,-9.942 -21.704,-23.125c0,-13.239 9.006,-22.845 21.418,-22.845c12.454,0 21.847,9.942 21.847,23.134c0,13.236 -9.068,22.836 -21.561,22.836m0,-63.625c-23.266,0 -41.492,17.915 -41.492,40.79c0,22.625 18.101,40.351 41.206,40.351c23.348,0 41.631,-17.854 41.631,-40.641c0,-22.71 -18.157,-40.5 -41.345,-40.5m91.027,1.579l-18.995,0l0,-19.422c0,-0.697 -0.562,-1.265 -1.26,-1.265l-17.26,0c-0.698,0 -1.266,0.568 -1.266,1.265l0,19.422l-8.3,0c-0.695,0 -1.258,0.568 -1.258,1.265l0,14.835c0,0.697 0.563,1.265 1.258,1.265l8.3,0l0,38.388c0,15.513 7.721,23.38 22.949,23.38c6.192,0 11.33,-1.279 16.172,-4.024c0.392,-0.22 0.637,-0.644 0.637,-1.095l0,-14.128a1.264,1.264 0 0 0 -1.829,-1.133c-3.325,1.673 -6.54,2.445 -10.133,2.445c-5.538,0 -8.01,-2.514 -8.01,-8.15l0,-35.683l18.996,0c0.698,0 1.259,-0.568 1.259,-1.265l0,-14.835c0,-0.697 -0.561,-1.265 -1.259,-1.265m66.182,0.075l0,-2.385c0,-7.018 2.69,-10.147 8.725,-10.147c3.6,0 6.49,0.715 9.727,1.795a1.262,1.262 0 0 0 1.66,-1.202l0,-14.548a1.26,1.26 0 0 0 -0.892,-1.21c-3.42,-1.018 -7.796,-2.063 -14.348,-2.063c-15.945,0 -24.372,8.98 -24.372,25.956l0,3.653l-8.292,0a1.27,1.27 0 0 0 -1.268,1.264l0,14.912c0,0.696 0.57,1.266 1.268,1.266l8.292,0l0,59.212c0,0.697 0.563,1.265 1.259,1.265l17.261,0c0.697,0 1.265,-0.568 1.265,-1.265l0,-59.213l16.118,0l24.69,59.196c-2.804,6.22 -5.56,7.457 -9.322,7.457c-3.042,0 -6.244,-0.908 -9.519,-2.699a1.29,1.29 0 0 0 -1.005,-0.094c-0.33,0.116 -0.607,0.361 -0.747,0.681l-5.85,12.836a1.255,1.255 0 0 0 0.542,1.633c6.108,3.308 11.623,4.72 18.436,4.72c12.747,0 19.792,-5.937 26.004,-21.91l29.948,-77.388a1.264,1.264 0 0 0 -1.172,-1.723l-17.97,0a1.27,1.27 0 0 0 -1.197,0.848l-18.409,52.583l-20.164,-52.618a1.259,1.259 0 0 0 -1.179,-0.813l-29.489,0.001zm-38.368,-0.075l-17.263,0c-0.696,0 -1.264,0.568 -1.264,1.265l0,75.312c0,0.697 0.568,1.265 1.264,1.265l17.263,0c0.696,0 1.265,-0.568 1.265,-1.265l0,-75.312c0,-0.697 -0.57,-1.265 -1.265,-1.265m-8.543,-34.292c-6.839,0 -12.388,5.536 -12.388,12.374c0,6.843 5.549,12.386 12.388,12.386c6.836,0 12.38,-5.543 12.38,-12.386c0,-6.838 -5.544,-12.374 -12.38,-12.374m151.936,41.783l-3.163,0l0,4.033l3.163,0c1.578,0 2.52,-0.772 2.52,-2.017c0,-1.313 -0.942,-2.016 -2.52,-2.016m2.049,5.753l3.437,4.811l-2.897,0l-3.093,-4.412l-2.66,0l0,4.412l-2.424,0l0,-12.75l5.685,0c2.963,0 4.912,1.515 4.912,4.066c0,2.09 -1.208,3.368 -2.96,3.873m-2.693,-12.184c-6.222,0 -10.931,4.947 -10.931,11.004c0,6.054 4.675,10.935 10.868,10.935c6.22,0 10.935,-4.944 10.935,-11.004c0,-6.055 -4.68,-10.935 -10.872,-10.935m-0.063,23.154c-6.832,0 -12.148,-5.487 -12.148,-12.15c0,-6.662 5.385,-12.212 12.21,-12.212c6.833,0 12.149,5.486 12.149,12.143c0,6.664 -5.382,12.219 -12.211,12.219"/>
 </g>
</svg>